<svg width="34" height="34" viewBox="0 0 34 34" fill="none" xmlns="http://www.w3.org/2000/svg">
<path d="M7.64295e-06 16.7815C7.64295e-06 20.1005 0.984196 23.3449 2.82812 26.1045C4.67204 28.8641 7.29287 31.015 10.3592 32.2851C13.4255 33.5552 16.7996 33.8875 20.0548 33.2401C23.31 32.5926 26.3001 30.9943 28.647 28.6475C30.9938 26.3006 32.5921 23.3105 33.2396 20.0553C33.8871 16.8001 33.5547 13.426 32.2846 10.3597C31.0145 7.29336 28.8637 4.67252 26.104 2.8286C23.3444 0.984682 20.1 0.000492096 16.781 0.000492096C14.5767 -0.00161263 12.3936 0.431004 10.3567 1.27358C8.31979 2.11616 6.46903 3.35216 4.91035 4.91084C3.35168 6.46952 2.11568 8.32028 1.2731 10.3572C0.43052 12.3941 -0.00209708 14.5772 7.64295e-06 16.7815V16.7815ZM22.805 8.39149L25.171 10.7575L19.147 16.7815L25.171 22.8055L22.805 25.1725L16.781 19.1485L10.756 25.1725L8.39001 22.8065L14.414 16.7825L8.39001 10.7585L10.756 8.39249L16.78 14.4165L22.805 8.39149Z" fill="#E9E9E9"/>
</svg>
