<svg width="34" height="34" viewBox="0 0 34 34" fill="none" xmlns="http://www.w3.org/2000/svg">
<path d="M31.666 6.667H28.333V21.667H6.667V25C6.66832 25.4417 6.84437 25.865 7.15671 26.1773C7.46905 26.4896 7.89229 26.6657 8.334 26.667H26.666L33.333 33.334V8.334C33.3317 7.89229 33.1556 7.46905 32.8433 7.15671C32.531 6.84437 32.1077 6.66832 31.666 6.667V6.667ZM25 16.667V1.667C24.9987 1.22529 24.8226 0.802048 24.5103 0.48971C24.198 0.177372 23.7747 0.00131894 23.333 0H1.667C1.22529 0.00131894 0.802048 0.177372 0.48971 0.48971C0.177372 0.802048 0.00131894 1.22529 0 1.667V25L6.667 18.333H23.333C23.7745 18.3317 24.1976 18.1558 24.5099 17.8436C24.8222 17.5315 24.9984 17.1085 25 16.667V16.667Z" fill="black"/>
</svg>
